<svg xmlns="http://www.w3.org/2000/svg" viewBox="0 0 139.25 176.86"><defs><style>.cls-1{fill:#989797;}.cls-2{fill:#ffdcda;}.cls-10,.cls-2,.cls-6,.cls-8,.cls-9{stroke:#422918;}.cls-2,.cls-6,.cls-8{stroke-linecap:round;stroke-linejoin:round;}.cls-2,.cls-8{stroke-width:3.54px;}.cls-3{fill:#ffcfcc;}.cls-4{fill:#ffab83;}.cls-5{fill:#422918;}.cls-6{fill:none;stroke-width:0.92px;}.cls-7,.cls-9{fill:#ff81af;}.cls-7{fill-rule:evenodd;}.cls-8{fill:#ffd3d0;}.cls-10,.cls-9{stroke-miterlimit:10;stroke-width:3.9px;}.cls-10{fill:#ff63b0;}</style></defs><g id="Layer_2" data-name="Layer 2"><g id="Capa_1" data-name="Capa 1"><path class="cls-1" d="M21.1,101.3a4.15,4.15,0,1,1-4.22-3.94A4.06,4.06,0,0,1,21.1,101.3Zm-7.25.16a3.11,3.11,0,1,0,3-3.29A3.13,3.13,0,0,0,13.85,101.46Zm2.53,2.06-.94,0-.09-4a8.79,8.79,0,0,1,1.55-.16,2.56,2.56,0,0,1,1.41.26,1.15,1.15,0,0,1,.41.88,1,1,0,0,1-.81,1v0a1.2,1.2,0,0,1,.76,1,3.14,3.14,0,0,0,.32,1l-1,0a3.39,3.39,0,0,1-.34-1c-.09-.44-.34-.63-.86-.62h-.44Zm0-2.29h.44c.52,0,.94-.19.93-.61s-.29-.61-.88-.59a1.87,1.87,0,0,0-.52.06Z"/><path class="cls-2" d="M7.1,36.63c5.25,8.07,29.72,34.91,35.84,29.43s.18-12.34-5-23.36C32.42,31,27.23,15.18,24.52,11,19.27,2.93,9.3,2.86,4.56,9-.46,15.48,1.85,28.55,7.1,36.63Z"/><path class="cls-3" d="M11.53,33.38A90.87,90.87,0,0,0,21.78,45.81q1.62,1.72,3.34,3.39c1.17,1.13,2,2.5,3.48,3.24,1.62-2,1.79-4.2,5.6-7.32a29.79,29.79,0,0,1-3.46-5.93c-4.06-8.11-8.15-18.87-10-21.79C17,11.73,10.91,11.11,8.37,14.89,5.67,18.91,7.85,27.72,11.53,33.38Z"/><path class="cls-2" d="M132.68,33.55c-5,8.24-28.64,35.8-34.92,30.51s-.55-12.33,4.28-23.5c5.16-11.91,9.87-27.84,12.45-32.08,5-8.24,15-8.61,19.89-2.64C139.6,12.18,137.68,25.32,132.68,33.55Z"/><path class="cls-3" d="M126.84,32a91.74,91.74,0,0,1-10.25,12.43c-1.09,1.15-2.2,2.29-3.34,3.39s-2,2.51-3.49,3.24c-1.62-2-1.79-4.2-5.6-7.31a30.16,30.16,0,0,0,3.46-5.94c4.06-8.11,8.15-18.87,10-21.79,3.68-5.66,9.78-6.29,12.32-2.5C132.69,17.49,130.52,26.3,126.84,32Z"/><path class="cls-2" d="M121.09,76.14c-3.45,38.55-26.29,36.73-54.45,34.21S15.69,105.56,19.15,67c1.53-17,13.07-31,29-37.62.9-1,2.23-1.19,3.47-1.57-1-1.06-3.31-1.8-4.79-1.92,3-1.77,7.34-2.51,10.47-1a8.29,8.29,0,0,1,.61-6.15c.78-1.74,2.78-3.31,3.38-5a4.18,4.18,0,0,0,.12,2.43,18.2,18.2,0,0,1,8.91-4.11c-1,1.84-1.82,2.66-1.19,5a10.58,10.58,0,0,0,3.24,4.51c2.85,2.65,5.8,3.67,9.11,4.93C105.89,32,123.18,52.9,121.09,76.14Z"/><ellipse class="cls-4" cx="34.87" cy="91.33" rx="5.62" ry="3.45" transform="translate(-5.35 2.23) rotate(-3.4)"/><ellipse class="cls-4" cx="100.85" cy="97.85" rx="3.45" ry="5.62" transform="translate(-19.75 169.96) rotate(-75.01)"/><ellipse class="cls-5" cx="68.79" cy="85.28" rx="1.34" ry="2.39" transform="translate(-21.05 148) rotate(-86.03)"/><path class="cls-6" d="M66.05,88.93s1.86.62,2.73-2.69"/><path class="cls-6" d="M70.82,89.19s-2,.45-2.2-3"/><circle class="cls-5" cx="42.12" cy="80.16" r="7.98"/><circle class="cls-5" cx="95.34" cy="85.48" r="7.98"/><path class="cls-7" d="M45.69,175.36a1.5,1.5,0,0,1-1.5-1.5V169c0-2.09,1.82-2.86,3-3.37.4-.18.78-.34,1.09-.52a23.08,23.08,0,0,0,6.41-5,44.73,44.73,0,0,1-6-3.51c-.23-.17-.46-.32-.68-.47a18.77,18.77,0,0,1-1.7-1.27c-7.53-6.46-8.4-13.47-9.41-21.59-.67-5.36-1.42-11.44-4.38-18.18a17.36,17.36,0,0,0-2.34-3.71,22.19,22.19,0,0,1-1.91-2.83,2,2,0,0,1-.92-1.25c-.13-.42-.22-.65-.27-.77a1.58,1.58,0,0,1,.1-1.54,1.55,1.55,0,0,1,1.26-.67h80.88a1.53,1.53,0,0,1,1.25.67,1.55,1.55,0,0,1,.1,1.54,8.07,8.07,0,0,0-.27.78,1.62,1.62,0,0,1-1.47,1.23c-.39.65-.82,1.28-1.27,1.94l-.66,1,1.26-.29a36.31,36.31,0,0,1,8.32-1.27,11.8,11.8,0,0,1,5.62,1.22,13.58,13.58,0,0,1,6.86,9.19,17.25,17.25,0,0,1-3.4,14c-3.85,5.12-9.26,7-14.5,8.92a42.55,42.55,0,0,0-9.65,4.39,32.23,32.23,0,0,1-2.92,1.83,4.69,4.69,0,0,1-2.11.51,3.41,3.41,0,0,1-.73-.07,25.25,25.25,0,0,1-4.35,4.75c-.79.67-1.67,1.32-2.43,1.86a46.52,46.52,0,0,1-6.1,3.58,19.32,19.32,0,0,0,5.88,5l.75.41c1.11.58,2.63,1.38,2.63,3.51v4.86a1.5,1.5,0,0,1-1.5,1.5ZM100.51,136a11.79,11.79,0,0,0,6.55,1.92,7.23,7.23,0,0,0,1.64-.16c7.06-1.67,14.54-6.75,14.27-14-.18-4.75-2.82-7.7-6.88-7.7a11,11,0,0,0-3.68.7c-2.79,1-4.68,3.12-6.2,4.82-1.35,1.5-2.53,2.82-4,3-.59,2.88-.93,5.62-1.25,8.28C100.78,134,100.65,135,100.51,136Z"/><path class="cls-5" d="M109.37,105.86c.07,0-.07.15-.35,1.06,0,.12-.07.16-.11.16s-.28-.46-.46-.46-.1,0-.15.14c-.82,1.6-2,3.07-3,4.77.22,1.12.15,1.62.94,1.62a6.1,6.1,0,0,0,1.1-.16c2.1-.46,5.84-1.55,9.35-1.55a10.27,10.27,0,0,1,4.9,1c7.24,3.93,8.55,13.56,3,21-5.94,7.88-15.91,7.66-23.78,13A31.56,31.56,0,0,1,98,148.14a3.25,3.25,0,0,1-1.42.34c-.63,0-1.15-.21-1.22-.55a23.43,23.43,0,0,1-4.84,5.59c-.7.6-1.5,1.19-2.32,1.78a50,50,0,0,1-7.47,4.22,20.42,20.42,0,0,0,7.36,6.85c1.41.83,2.64,1.1,2.64,2.63v4.86h-45V169c0-1.53,2-1.77,3.39-2.6,2.78-1.65,5.69-3.41,7.91-6.82a48.14,48.14,0,0,1-7.37-4.16c-.82-.59-1.58-1.06-2.27-1.65-12.06-10.36-6-22.4-13.39-39.24-1.28-2.92-3.2-4.49-4.39-6.81-.29-.57-.54-.19-.72-.8-.28-.91-.41-1.06-.35-1.06h80.87m-7.62,17.33a1.53,1.53,0,0,1-.67-.16l-.08-.11c-1.14,5-1.47,9.47-2.08,13.66,1.55,1.77,5.22,2.86,8.14,2.86a8.77,8.77,0,0,0,2-.2c7.49-1.77,15.72-7.33,15.42-15.48-.22-5.62-3.55-9.14-8.38-9.14a12.54,12.54,0,0,0-4.19.79c-5.63,2-7.75,7.78-10.15,7.78m7.62-20.33H28.5a3,3,0,0,0-2.75,4.28c0,.11.12.28.23.65a3.51,3.51,0,0,0,1.21,1.83,24.22,24.22,0,0,0,1.86,2.71,16.81,16.81,0,0,1,2.16,3.4c2.87,6.54,3.58,12.25,4.26,17.76,1,8.08,2,15.71,9.92,22.55a20.53,20.53,0,0,0,1.83,1.36l.66.46a40,40,0,0,0,4.37,2.69,28,28,0,0,1-4.7,3.27,9.45,9.45,0,0,1-.92.42c-1.28.55-3.94,1.68-3.94,4.76v4.86a3,3,0,0,0,3,3h45a3,3,0,0,0,3-3V169c0-3-2.23-4.21-3.43-4.84-.22-.12-.45-.23-.68-.37a19.31,19.31,0,0,1-4.27-3.24,41.72,41.72,0,0,0,4.59-2.81c.78-.56,1.7-1.23,2.53-1.94a27.53,27.53,0,0,0,4.1-4.32h0a6.19,6.19,0,0,0,2.8-.68,34.38,34.38,0,0,0,3.07-1.92,41.13,41.13,0,0,1,9.32-4.22c5.44-1.94,11.07-3.95,15.19-9.42A18.79,18.79,0,0,0,130.59,120,15,15,0,0,0,123,109.85a13.1,13.1,0,0,0-6.33-1.41,28.56,28.56,0,0,0-5.42.59,3.41,3.41,0,0,0,.68-1.26c.11-.35.18-.52.22-.63a3,3,0,0,0-2.75-4.28Zm-5.92,23a11.16,11.16,0,0,0,3.88-3.22c1.48-1.66,3.16-3.53,5.59-4.41a9.57,9.57,0,0,1,3.17-.61c1.55,0,5.17.61,5.38,6.25.23,6.09-6.42,10.87-13.11,12.45a5.68,5.68,0,0,1-1.3.12,11.41,11.41,0,0,1-4.93-1.16q.14-1,.27-2.16c.29-2.35.58-4.76,1-7.26Z"/><path class="cls-8" d="M47.64,99.26c-1.23-3.7-4.7-6-8.08-5.19-3.15.75-5.16,4-5,7.52a17.76,17.76,0,0,0,.52,4.47c1,4.1,2.17,4.26,3.68,3.9a4.46,4.46,0,0,0,1-.35c.87,1,1.92.91,3.15.61s2.41-.76,2.82-2.14a3,3,0,0,0,1.28-.09c1.52-.36,2.78-1.11,1.81-5.2A18.91,18.91,0,0,0,47.64,99.26Z"/><path class="cls-8" d="M110.44,106c2-3.32,1.57-7.46-1.22-9.53-2.6-1.93-6.35-1.41-8.94,1a17.53,17.53,0,0,0-3.1,3.27c-2.51,3.38-1.86,4.39-.61,5.32a4.34,4.34,0,0,0,.9.53c-.19,1.3.54,2.06,1.56,2.81s2.13,1.36,3.45.79a3.22,3.22,0,0,0,.89.92c1.25.93,2.63,1.42,5.14-2A18.26,18.26,0,0,0,110.44,106Z"/><path class="cls-9" d="M89.13,36.28c2-2.1,6.73-3.14,8.15-3.51a4.28,4.28,0,0,1,3.52.19,3.92,3.92,0,0,1,1.35,3.22c0,4.9-3.92,12.25-8.39,8.47C92.08,43.23,85.81,39.75,89.13,36.28Zm.89.31c-.26-2.9-3.31-6.66-4.19-7.83A4.29,4.29,0,0,0,83,26.71a3.92,3.92,0,0,0-3.06,1.68c-3.05,3.83-4.58,12,1.28,11.85C83.38,40.18,90.44,41.37,90,36.59Z"/><path class="cls-10" d="M85.32,37.07c.25-1.54,1.17-4,2.6-4.88a1.64,1.64,0,0,1,.56-.24,2,2,0,0,1,1.13.22l2.08.85a3.53,3.53,0,0,1,1.46.92,2.19,2.19,0,0,1,.33,1.8,24.61,24.61,0,0,1-1.33,3.68c-.39,1-1,2.23-2.06,2.59s-2.67-.56-3.54-1a2.26,2.26,0,0,1-1-.67,2.22,2.22,0,0,1-.34-1.08A7.92,7.92,0,0,1,85.32,37.07Z"/></g></g></svg>